<svg width="605" height="612" viewBox="0 0 605 612" fill="none" xmlns="http://www.w3.org/2000/svg">
<g id="Brujula_en_Espa&#195;&#177;ol 1" clip-path="url(#clip0_7_3)">
<path id="Vector" d="M325.69 36.66V1.5H336.49V58.91H327.239L297.589 22.7981L294.93 19.5593V23.75V58.91H284.13V1.5H293.479L323.029 37.61L325.69 40.8615V36.66Z" fill="#F9D82D" stroke="white" stroke-width="3"/>
<path id="Vector_2" d="M296.471 607.774L296.498 607.782C300.847 609.076 305.358 609.742 309.896 609.76L309.914 609.76L309.932 609.761C314.535 609.888 319.117 609.074 323.394 607.367L323.4 607.364C326.61 606.101 329.385 603.936 331.391 601.13C333.116 598.607 334.03 595.617 334.01 592.56L334.01 592.55C334.01 588.787 333.034 585.988 331.241 583.979L331.234 583.972L331.234 583.972C329.352 581.835 326.969 580.199 324.299 579.21C320.665 577.92 316.959 576.844 313.2 575.988C309.723 575.308 306.326 574.274 303.059 572.903L303.033 572.892L303.006 572.88C301.75 572.294 300.708 571.507 299.982 570.471C299.248 569.424 298.901 568.214 298.9 566.904C298.9 566.903 298.9 566.901 298.9 566.9H300.4C300.395 565.894 300.651 564.905 301.144 564.028C301.636 563.152 302.348 562.418 303.21 561.9L296.471 607.774ZM296.471 607.774L296.443 607.767C293.161 606.924 290.043 605.546 287.213 603.691L290.708 595.936C293.24 597.543 295.976 598.809 298.845 599.699C302.445 600.876 306.208 601.48 309.996 601.49H310C314.063 601.49 317.29 600.905 319.537 599.522C320.614 598.945 321.518 598.09 322.152 597.044C322.794 595.985 323.135 594.771 323.14 593.533C323.152 592.623 322.958 591.722 322.571 590.899C322.183 590.072 321.612 589.345 320.901 588.772L320.901 588.772C319.478 587.626 317.85 586.764 316.103 586.23C314.282 585.631 311.864 584.987 308.866 584.298L308.859 584.297C305.092 583.449 301.379 582.371 297.743 581.07C295.062 580.076 292.679 578.415 290.819 576.244L290.819 576.244L290.812 576.235C289.006 574.161 288.034 571.323 288.04 567.562L288.04 567.553L288.04 567.544C288.006 564.462 288.905 561.442 290.616 558.88C292.593 556.085 295.337 553.922 298.516 552.653L298.518 552.652C302.774 550.946 307.335 550.132 311.918 550.259L311.94 550.26L311.962 550.26C315.648 550.255 319.321 550.703 322.897 551.595L322.904 551.597L322.911 551.599C325.757 552.279 328.493 553.349 331.042 554.777L327.862 562.606C322.947 559.994 317.474 558.582 311.892 558.5L311.881 558.5H311.87C307.872 558.5 304.631 559.141 302.402 560.636L296.471 607.774Z" fill="#B925FF" stroke="white" stroke-width="3"/>
<path id="Vector_3" d="M571.99 325.91H603.35V334.12H559.6V276.75H602.22V284.97H571.99H570.49V286.47V299.58V301.08H571.99H598.49V308.91H571.99H570.49V310.41V324.41V325.91H571.99Z" fill="#31E963" stroke="white" stroke-width="3"/>
<path id="Vector_4" d="M16.555 279.155L16.5555 279.155C21.6296 276.486 27.2923 275.133 33.0248 275.22L33.0409 275.22L33.0571 275.22C38.7889 275.122 44.4524 276.475 49.5211 279.153C54.2856 281.694 58.2701 285.481 61.0485 290.111C63.8272 294.741 65.295 300.04 65.295 305.44C65.295 310.84 63.8272 316.139 61.0485 320.769C58.27 325.399 54.2855 329.186 49.5209 331.727C44.4668 334.397 38.8211 335.75 33.1057 335.66L33.0896 335.66L33.0735 335.66C27.3245 335.755 21.6441 334.402 16.5556 331.725C11.8257 329.237 7.87338 325.493 5.13288 320.904C2.42483 316.19 0.999756 310.847 0.999756 305.41C0.999756 299.973 2.42443 294.632 5.13173 289.917C7.88636 285.355 11.8367 281.633 16.555 279.155ZM43.1866 323.174L43.1866 323.174L43.1939 323.169C46.2103 321.456 48.6881 318.935 50.3481 315.888L50.3522 315.881L50.3562 315.873C52.0448 312.644 52.9268 309.054 52.9268 305.41C52.9268 301.766 52.0448 298.176 50.3562 294.947L50.3514 294.937L50.3465 294.929C48.6806 291.895 46.2038 289.386 43.1929 287.68L43.1902 287.678C40.0939 285.937 36.5925 285.044 33.0404 285.09C29.4875 285.041 25.985 285.934 22.8891 287.679L22.888 287.679C19.8742 289.382 17.396 291.893 15.733 294.93L15.7283 294.938L15.7238 294.947C14.0352 298.176 13.1532 301.766 13.1532 305.41C13.1532 309.054 14.0352 312.644 15.7238 315.873L15.7284 315.882L15.7332 315.891C17.3966 318.924 19.8752 321.432 22.8889 323.131L22.8891 323.131C25.9844 324.875 29.4863 325.768 33.0385 325.72C36.5862 325.779 40.0867 324.9 43.1866 323.174Z" fill="#FF4E4E" stroke="white" stroke-width="2"/>
<path id="Vector_5" d="M416.88 412.98L377.99 347.01L535.28 306.41L377.99 265.75L416.87 199.75L350.87 238.63L310.28 81.41L269.65 238.66L203.65 199.78L242.53 265.78L85.28 306.41L242.57 347.01L203.69 413.01L269.69 374.13L310.28 531.41L350.91 374.13L416.88 412.98ZM366.88 306.38H475.63L357.46 337.53C363.612 328.318 366.89 317.487 366.88 306.41V306.38ZM310.63 141.41L341.78 259.58C332.56 253.422 321.717 250.144 310.63 250.16V141.41ZM254.38 306.41H145.63L263.8 275.26C257.642 284.48 254.364 295.323 254.38 306.41ZM310.63 471.41L279.48 353.21C288.7 359.368 299.543 362.646 310.63 362.63V471.41ZM310.63 351.41C301.73 351.41 293.03 348.771 285.629 343.826C278.229 338.882 272.461 331.853 269.055 323.631C265.65 315.408 264.758 306.36 266.495 297.631C268.231 288.902 272.517 280.884 278.81 274.59C285.104 268.297 293.122 264.011 301.851 262.275C310.58 260.538 319.628 261.43 327.851 264.835C336.073 268.241 343.101 274.009 348.046 281.409C352.991 288.81 355.63 297.51 355.63 306.41C355.63 312.32 354.466 318.171 352.205 323.631C349.943 329.09 346.628 334.051 342.45 338.23C338.271 342.408 333.31 345.723 327.851 347.985C322.391 350.246 316.54 351.41 310.63 351.41Z" fill="url(#paint0_radial_7_3)"/>
<path id="Vector_6" d="M310.63 328.88C323.056 328.88 333.13 318.806 333.13 306.38C333.13 293.954 323.056 283.88 310.63 283.88C298.204 283.88 288.13 293.954 288.13 306.38C288.13 318.806 298.204 328.88 310.63 328.88Z" fill="#848484"/>
<path id="Vector_7" d="M505.355 337.943C498.711 378.845 479.356 416.64 450.007 445.949C420.658 475.258 382.835 494.561 341.922 501.148L347.299 480.338C380.968 473.219 411.858 456.489 436.22 432.165C460.584 407.841 477.364 376.978 484.536 343.32L505.355 337.943Z" fill="url(#paint1_linear_7_3)" stroke="white" stroke-width="3"/>
<path id="Vector_8" d="M278.616 501.04C237.876 494.329 200.244 475.007 171.037 445.768C141.83 416.527 122.551 378.872 115.887 338.123L136.775 343.51C143.953 376.997 160.644 407.709 184.853 431.952C209.063 456.196 239.752 472.93 273.229 480.154L278.616 501.04Z" fill="url(#paint2_linear_7_3)" stroke="white" stroke-width="3"/>
<path id="Vector_9" d="M341.923 111.612C382.835 118.199 420.658 137.502 450.007 166.811C479.356 196.12 498.711 233.915 505.355 274.817L484.536 269.44C477.364 235.783 460.584 204.919 436.22 180.595C411.858 156.271 380.968 139.541 347.299 132.422L341.923 111.612Z" fill="url(#paint3_linear_7_3)" stroke="white" stroke-width="3"/>
<path id="Vector_10" d="M115.927 274.637C122.585 233.89 141.856 196.234 171.056 166.991C200.255 137.748 237.88 118.42 278.616 111.701L273.229 132.587C239.756 139.819 209.074 156.559 184.872 180.806C160.67 205.052 143.986 235.764 136.815 269.25L115.927 274.637Z" fill="url(#paint4_linear_7_3)" stroke="white" stroke-width="3"/>
</g>
<defs>
<radialGradient id="paint0_radial_7_3" cx="0" cy="0" r="1" gradientUnits="userSpaceOnUse" gradientTransform="translate(310.28 306.41) rotate(90) scale(225 225)">
<stop/>
<stop offset="1" stop-color="#090909" stop-opacity="0.29"/>
</radialGradient>
<linearGradient id="paint1_linear_7_3" x1="423.545" y1="335.92" x2="423.545" y2="502.98" gradientUnits="userSpaceOnUse">
<stop stop-color="#31E963"/>
<stop offset="1" stop-color="#B925FF"/>
</linearGradient>
<linearGradient id="paint2_linear_7_3" x1="197.345" y1="336.1" x2="197.345" y2="502.88" gradientUnits="userSpaceOnUse">
<stop stop-color="#FF4E4E"/>
<stop offset="1" stop-color="#B925FF"/>
</linearGradient>
<linearGradient id="paint3_linear_7_3" x1="423.545" y1="109.78" x2="423.545" y2="276.84" gradientUnits="userSpaceOnUse">
<stop stop-color="#F9D82D"/>
<stop offset="1" stop-color="#31E963"/>
</linearGradient>
<linearGradient id="paint4_linear_7_3" x1="197.365" y1="109.86" x2="197.365" y2="276.66" gradientUnits="userSpaceOnUse">
<stop stop-color="#F9D82D"/>
<stop offset="1" stop-color="#FF4E4E"/>
</linearGradient>
<clipPath id="clip0_7_3">
<rect width="604.84" height="611.16" fill="white"/>
</clipPath>
</defs>
</svg>
