<svg version="1.1" xmlns="http://www.w3.org/2000/svg" style="display: block;" viewBox="0 0 2048 2048" width="1024" height="1024" preserveAspectRatio="none">
<path transform="translate(0,0)" fill="#1a1a2e" d="M 986.006 248.576 C 997.102 247.467 1017.68 247.719 1029.52 247.731 C 1190.6 249.097 1344.85 313.033 1459.66 426.031 C 1571.99 539.106 1634.15 692.584 1632.17 851.956 C 1631.8 975.697 1588.15 1083.15 1530.01 1190.22 C 1453.1 1331.85 1356 1458.84 1255.23 1583.88 C 1211.61 1638.14 1166.73 1691.39 1120.65 1743.58 C 1097.46 1769.96 1070.28 1801.62 1045.43 1826.32 C 1027.06 1845.4 1024.5 1846 1005.62 1827.43 C 990.561 1812.62 976.678 1797.62 962.463 1782.02 C 927.885 1744.2 894.118 1705.64 861.186 1666.38 C 745.897 1530.2 633.75 1387.61 542.612 1234 C 481.202 1130.5 431.908 1024.65 419.152 903.641 C 402.521 745.87 454.629 589.985 555.124 468.339 C 645.344 358.149 771.678 283.478 911.715 257.572 C 939.702 252.329 958.436 251.222 986.006 248.576 z M 555.366 1026.52 L 556.312 1025.93 C 565.82 1020.06 581.496 1012.81 591.924 1007.4 C 606.548 999.688 620.777 991.249 634.559 982.115 C 723.423 923.752 797.261 841.828 865.062 760.795 C 878.742 744.445 892.768 724.705 908.102 709.922 C 915.268 703.014 931.525 716.729 940.933 717.958 C 968.453 721.554 979.333 690.37 1007.21 712.234 C 1019.7 721.745 1038.43 717.918 1052.24 710.406 C 1060.5 706.855 1064.43 705.37 1073.58 704.058 C 1090.4 712.096 1102.35 728.56 1114.67 742.379 C 1130.36 760.043 1146.15 777.617 1162.04 795.101 C 1243.06 883.59 1327.97 965.043 1437.44 1018.44 C 1459.02 1028.97 1469.84 1030.73 1489.2 1038.55 C 1537.31 906.428 1540.81 774.972 1479.61 646.347 C 1388.17 454.173 1199.3 354.573 990.722 362.475 C 960.849 364.903 939.125 367.054 909.655 373.334 C 805.377 395.396 711.406 451.534 642.554 532.898 C 556.208 632.858 514.178 763.608 526.105 895.158 C 529.962 942.831 540.182 981.721 555.366 1026.52 z M 570.038 1062.7 C 586.38 1091.17 595.814 1110.08 615.681 1137.58 C 681.246 1228.51 775.921 1294.3 884.008 1324.05 C 1086.22 1378.56 1297.67 1313.01 1425.47 1145.35 C 1444.03 1121 1458.25 1098.3 1473.1 1071.52 L 1474.79 1067.94 C 1473.76 1066.75 1442.07 1058.78 1437.27 1057.24 C 1402.99 1045.9 1369.59 1032.04 1337.34 1015.77 C 1276.34 984.708 1227.83 952.641 1172.74 912.065 C 1149.39 894.869 1118.62 870.028 1095.6 854.612 C 1105.82 892.35 1150.71 965.363 1175.37 995.717 C 1080.03 966.463 1044.28 917.744 986.656 844.763 L 986.006 845.811 C 981.158 853.798 976.683 864.236 972.484 872.788 C 966.109 885.474 959.475 898.027 952.586 910.441 C 907.813 990.336 849.153 1052.52 756.815 1075.56 C 753.798 1076.31 750.771 1077.02 747.735 1077.69 C 815.416 1021.75 882.692 918.099 901.99 829.418 C 902.472 827.2 901.833 824.613 900.472 822.758 C 894.082 826.449 876.456 847.417 870.017 854.337 C 860.637 864.434 850.993 874.282 841.093 883.87 C 770.792 951.881 664.568 1032.8 570.038 1062.7 z"/>
<path transform="translate(0,0)" fill="#1a1a2e" d="M 1069.09 450.142 C 1075.21 449.621 1080.02 450.898 1085.83 452.159 C 1141.16 464.165 1137.42 516.127 1095.18 542.69 C 1057.32 566.494 1015.97 564.714 976.47 582.985 C 945.259 597.423 930.442 630.735 952.099 660.525 C 954.207 663.466 958.161 666.693 959.59 669.313 L 957.766 669.977 C 948.386 666.942 939.658 663.214 931.637 657.374 C 918.247 647.571 909.309 632.843 906.794 616.44 C 904.976 603.515 907.047 590.341 912.745 578.597 C 944.379 513.754 1061.71 534.087 1090.59 492.924 C 1094.05 488 1096.02 481.936 1094.84 475.928 C 1092.43 463.608 1078.74 456.261 1069.09 450.142 z"/>
<path transform="translate(0,0)" fill="#1a1a2e" d="M 1170.75 491.531 C 1176.16 493.245 1181.21 496.232 1185.7 499.79 C 1204.41 514.63 1214.97 535.048 1206.27 558.554 C 1193.53 593.005 1164.36 607.597 1132.05 619.903 C 1094.6 634.169 1043.09 636.451 1027.93 680.329 C 1027.2 683.245 1027.06 685.392 1024.91 687.383 L 1022.45 687.231 C 1008.77 677.505 1001.35 649.283 1006.14 633.087 C 1016.27 598.84 1061.73 588.35 1092.13 580.477 C 1132.06 570.137 1205.14 546.776 1170.75 491.531 z"/>
</svg>