<svg width="2141" height="852" viewBox="0 0 2141 852" fill="none" xmlns="http://www.w3.org/2000/svg">
<g clip-path="url(#clip0_9_72)">
<path d="M513.091 355.439C513.091 379.186 513.091 402.933 513.091 430.187C536.375 407.14 561.482 399.224 589.868 409.859C617.767 420.311 634.657 440.608 638.852 472.312C639.001 510.254 639.055 546.554 638.931 582.853C638.918 586.706 637.856 590.555 637.28 594.406C627.207 594.468 617.134 594.53 605.479 594.609C603 594.75 602.102 594.875 601.205 595C599.681 594.86 598.156 594.719 595.145 594.588C592.139 594.724 590.62 594.851 589.101 594.978C587.758 593.417 586.414 591.856 585.06 588.651C585.256 576.034 585.664 565.06 585.625 554.089C585.541 530.124 585.228 506.16 585.009 482.196C583.947 469.023 576.273 460.638 564.495 456.409C550.305 451.315 536.48 454.479 526.803 465.366C520.596 472.35 515.218 482.601 514.741 491.664C513.143 522.001 513.915 552.463 513.784 582.878C513.768 586.477 513.782 590.076 513.782 594.655C500.637 594.655 488.351 594.655 475.126 593.753C472.752 590.068 471.316 587.284 469.88 584.501C468.777 585.024 467.674 585.546 466.571 586.069C467.072 588.833 467.573 591.597 468.074 594.361C467.175 594.465 466.276 594.57 464.455 594.171C463.098 593.253 462.582 593.013 461.982 592.951C461.683 582.291 461.148 571.632 461.122 560.971C460.955 492.926 460.9 424.88 461.347 355.87C461.885 354.904 461.988 354.309 461.988 354.309C470.796 354.081 479.604 353.853 489.567 354.488C495.299 354.913 499.876 354.474 504.453 354.035C505.972 353.986 507.492 353.936 509.99 354.281C511.675 354.929 512.383 355.184 513.091 355.439Z" fill="white"/>
<path d="M1049.76 590.624C1007.88 605.402 971.211 597.979 939.008 568.318C896.09 528.79 901.743 458.315 949.691 423.079C989.539 393.795 1045.74 396.8 1081.27 430.408C1123.89 470.717 1122 536.787 1076.71 574.178C1068.86 580.656 1059.26 584.986 1049.76 590.624ZM1022.33 454.22C1018.03 453.822 1013.72 452.977 1009.44 453.102C989.332 453.689 972.083 466.947 965.327 486.678C959.041 505.037 964.807 524.953 980.27 538.291C995.001 550.997 1015.57 552.963 1033.44 542.938C1051.19 532.984 1059.65 516.932 1058.21 497.179C1056.66 475.86 1043.99 461.802 1022.33 454.22Z" fill="white"/>
<path d="M862.969 575.809C861.01 581.908 859.254 587.225 857.356 592.973C836.146 592.973 815.272 593.11 794.406 592.768C792.219 592.733 788.806 590.298 788.102 588.251C767.572 528.491 747.312 468.639 727.049 408.789C726.867 408.252 727.236 407.532 727.416 406.515C745.844 406.515 764.333 406.515 783.852 406.515C796.447 445.869 809.112 485.444 821.778 525.02C822.546 524.962 823.315 524.904 824.083 524.846C827.953 513.845 832.104 502.932 835.637 491.825C844.14 465.091 852.239 438.231 860.888 411.545C861.633 409.244 865.206 406.352 867.535 406.29C884.347 405.84 901.176 406.048 918 406.048C899.58 462.819 881.376 518.923 862.969 575.809Z" fill="white"/>
<path d="M1136.04 534.846C1136.76 506.284 1134.23 477.239 1139.02 449.281C1144.92 414.922 1172.41 395.459 1207.27 387.219C1242.06 378.998 1273.21 387.238 1299.09 412.21C1328.21 387.288 1361.59 376.134 1400.83 390.082C1431.51 400.985 1449.8 421.703 1454.4 453.388C1454.23 455.873 1454.61 457.099 1454.99 458.325C1455.35 502.589 1455.71 546.852 1456 591.116C1456 591.698 1455.15 592.284 1453.75 591.849C1452.79 554.672 1452.79 518.513 1452.79 482.098C1419.22 487.656 1419.04 488.767 1405.53 473.268C1401.64 474.29 1397.95 475.261 1394.25 476.233C1392.9 470.065 1392.38 463.61 1390.04 457.784C1384.43 443.767 1374.62 437.712 1360.06 438.067C1346.15 438.406 1333.57 446.69 1330.19 460.068C1327.75 469.746 1328.12 480.041 1326.49 491.69C1321.9 498.513 1319.06 506.943 1314.02 508.297C1298.98 512.345 1301.02 496.331 1294.22 488.292C1291.31 494.594 1289.34 498.851 1286.73 504.48C1282.87 500.068 1280.58 497.462 1276.64 492.973C1274.49 498.384 1273.26 502.033 1271.58 505.492C1270.41 507.889 1268.62 510.023 1267.11 512.274C1266.95 499.189 1266.98 486.099 1266.6 473.019C1265.99 452.299 1254.96 439.426 1237.05 438.12C1217.43 436.689 1203.24 447.604 1197.37 468.658C1190.84 471.472 1184.85 472.637 1180.13 475.566C1173.8 479.493 1169.88 478.765 1167.01 472.507C1162.75 463.231 1157.2 464.712 1149.02 468.881C1141.18 472.874 1138.21 477.426 1138.67 485.509C1139.3 496.623 1139.1 507.8 1138.69 518.931C1138.49 524.258 1136.96 529.543 1136.04 534.846ZM1449.14 471.218C1449.73 471.797 1450.32 472.375 1450.91 472.953C1451.17 472.726 1451.42 472.499 1451.68 472.272C1451.09 471.693 1450.5 471.115 1449.14 471.218Z" fill="white"/>
<path d="M385.169 542.187C391.116 537.843 397.062 533.498 404.265 528.237C413.527 534.032 426.48 542.135 441 551.22C434.055 558.856 427.648 565.9 420.329 572.507C415.731 568.632 412.044 565.193 408.358 561.754C407.176 562.638 405.995 563.522 404.814 564.406C406.479 566.995 408.163 569.571 409.802 572.176C411.082 574.213 412.305 576.286 413.554 578.342C409.533 581.05 405.513 583.759 400.161 586C398.309 573.295 391.125 570.425 380.251 572.001C375.99 572.619 371.546 571.857 367.217 572.163C362.078 572.525 359.413 570.902 358.13 565.487C357.33 562.111 354.063 559.316 351.903 556.26C348.877 558.532 345.7 560.634 342.866 563.123C339.971 565.667 335.286 571.189 335.017 570.971C327.245 564.668 320.421 572.698 313.294 572.025C305.374 571.277 298.252 572.525 292.296 578.124C286.269 572.748 280.243 567.372 273.86 560.814C272.94 559.126 272.376 558.62 271.812 558.114C243.644 525.435 245.728 468.887 276.686 435.598C316.218 393.091 395.682 388.644 434.845 443.279C435.992 444.879 436.961 446.606 438.473 449.003C425.769 458.672 413.29 468.169 401.858 476.87C393.051 470.088 385.575 462.594 376.636 457.808C357.427 447.523 334.871 452.116 319.467 467.914C305.158 482.588 302.078 504.738 311.846 523.598C317.849 535.187 325.829 544.623 340.268 548.19C341.081 548.818 341.91 549.128 341.91 549.128L342.699 548.666C356.008 551.254 368.718 549.053 382.324 543.723C384.113 543.08 384.641 542.633 385.169 542.187Z" fill="white"/>
<path d="M1477.5 511C1477.15 509.815 1476.81 508.631 1476.83 506.016C1476.81 496.335 1476.4 488.083 1476 479.831C1477.36 433.705 1518.71 389.827 1574.83 384.004C1613.27 380.015 1648.11 387.545 1676.58 413.226C1693.34 428.341 1703.05 446.44 1701.91 468.799C1701.42 478.43 1701.8 488.1 1700.76 498.678C1695.61 497.816 1689.92 493.456 1687.61 494.66C1672.73 502.415 1659.09 495.904 1644.97 492.117C1643.43 484.269 1642.82 477.135 1640.41 470.567C1632.43 448.836 1609.5 434.985 1586.97 437.396C1564.38 439.815 1538.63 459.752 1537.08 482.184C1536.27 483.089 1536.43 483.683 1537.41 484.919C1537.45 486.681 1537.31 487.694 1536.72 489.177C1536.6 491.541 1536.93 493.434 1537.53 496.054C1537.72 497.796 1537.66 498.811 1536.62 499.681C1524.68 498.889 1513.71 498.48 1502.79 497.532C1490.76 496.487 1482.1 500.329 1477.5 511Z" fill="white"/>
<path d="M674.481 594.988C673.581 594.861 672.682 594.733 670.634 594.638C669.16 594.78 668.836 594.89 668.511 595C668.175 594.883 667.839 594.766 666.302 594.266C664.735 565.961 664.367 538.039 664 510.116C664 477.265 664 444.413 664 410.112C673.28 410.112 681.753 409.739 690.157 410.352C692.512 410.524 695.293 413.163 696.803 415.411C709.837 434.818 718.853 455.071 717.936 479.823C716.62 515.329 717.905 550.931 717.765 586.49C717.755 589.197 715.25 591.893 712.164 594.614C698.443 594.752 686.462 594.87 674.481 594.988Z" fill="white"/>
<path d="M1645.41 492C1659.5 494.893 1673.21 501.585 1688.16 493.615C1690.48 492.377 1696.2 496.859 1701.17 498.804C1702 529.798 1702 560.685 1702 592.372C1682.99 592.372 1663.94 592.372 1643.97 592.372C1643.97 583.73 1643.97 575.152 1643.97 563.469C1600.43 606.295 1556.42 605.48 1510.97 568.996C1509.78 563.452 1508.36 559.595 1508.11 555.671C1507.89 552.437 1507.8 547.889 1509.82 546.05C1520.5 536.301 1531.61 526.778 1548.59 533.151C1550.88 534.011 1554.05 532.76 1557.52 532.795C1564.96 536.282 1571.37 540.63 1578.49 542.44C1613.52 551.343 1641.78 529.79 1645.41 492Z" fill="white"/>
<path d="M1136.03 534.909C1137.3 528.629 1138.82 523.369 1139.02 518.066C1139.44 506.986 1139.63 495.861 1139 484.798C1138.54 476.752 1141.52 472.221 1149.36 468.246C1157.55 464.096 1163.11 462.623 1167.37 471.856C1170.24 478.085 1174.17 478.81 1180.5 474.901C1185.23 471.985 1191.22 470.826 1197.54 468.882C1198.43 485.337 1198.42 501.794 1197.29 519.889C1195.79 541.463 1195.34 561.398 1195.19 581.335C1195.18 582.76 1197.33 584.199 1198.47 585.632C1200.6 592.207 1195.95 592.011 1191.21 591.997C1173.21 591.942 1155.21 591.975 1136.19 591.975C1136.01 589.27 1135.85 586.87 1136.67 583.321C1137.23 580.205 1136.8 578.237 1136.38 576.269C1136.15 562.816 1135.92 549.362 1136.03 534.909Z" fill="white"/>
<path d="M1395.06 475.99C1399.05 474.001 1402.69 473.026 1406.51 472C1419.8 487.558 1419.97 486.443 1452.99 480.864C1452.99 517.418 1452.99 553.716 1453 591.05C1435.51 592.215 1418.02 592.343 1399.44 591.24C1398.34 572.37 1398.5 554.73 1398.21 537.096C1398.15 533.714 1396.31 530.358 1395.29 526.991C1395.1 510.328 1394.9 493.666 1395.06 475.99Z" fill="white"/>
<path d="M1267.26 512.948C1269.06 509.675 1270.87 507.547 1272.05 505.156C1273.75 501.706 1275 498.066 1277.18 492.669C1281.17 497.146 1283.48 499.746 1287.4 504.147C1290.03 498.532 1292.03 494.286 1294.98 488C1301.86 496.018 1299.79 511.991 1315.02 507.954C1320.12 506.603 1322.99 498.195 1327.44 492.404C1328 524.973 1328 558.15 1328 592C1307.94 592 1288.21 592 1267 592C1267 565.959 1267 539.967 1267.26 512.948Z" fill="white"/>
<path d="M293 578.472C298.597 572.268 305.66 571.021 313.515 571.769C320.584 572.442 327.352 564.41 335.06 570.714C335.328 570.933 339.974 565.409 342.845 562.865C345.656 560.375 348.807 558.273 351.808 556C353.95 559.056 357.191 561.853 357.984 565.229C359.257 570.645 361.899 572.269 366.997 571.906C371.291 571.601 375.698 572.362 379.924 571.744C390.709 570.168 397.834 573.039 399 585.79C362.821 604.394 327.403 601.57 293 578.472Z" fill="white"/>
<path d="M1558 533.099C1555.2 533.372 1551.98 534.623 1549.66 533.762C1532.46 527.389 1521.2 536.913 1510.38 546.665C1508.34 548.505 1508.43 553.054 1508.64 556.288C1508.9 560.214 1510.34 564.071 1511.16 569C1491.65 555.178 1481.14 535.656 1477 511.946C1481.85 500.044 1490.66 496.094 1502.91 497.169C1514.03 498.144 1525.2 498.564 1537.82 500.122C1545.53 511.71 1551.77 522.404 1558 533.099ZM1495.39 542.388C1496.8 543.131 1498.21 543.873 1499.62 544.616C1500.05 543.321 1500.47 542.026 1500.9 540.731C1499.26 540.848 1497.63 540.966 1495.39 542.388Z" fill="white"/>
<path d="M348.208 255.908C343.639 247.427 346.291 243.259 354.964 242.858C358.947 242.673 362.944 242.826 366.811 242.826C370.946 236.959 363.602 225.377 374.681 225.001C377.726 224.897 381.106 234.817 384.332 240.137C383.614 240.903 382.896 241.669 382.178 242.435C386.738 242.435 391.608 241.451 395.754 242.77C398.678 243.7 400.62 247.758 403 250.42C400.516 252.448 398.293 255.56 395.485 256.248C391.398 257.249 386.889 256.505 381.22 256.505C381.22 262.207 381.954 267.601 380.93 272.633C380.367 275.403 376.849 277.564 374.664 280C372.515 277.576 369.091 275.428 368.501 272.667C367.481 267.887 368.218 262.727 368.218 257.257C361.3 256.943 355.093 256.662 348.208 255.908Z" fill="white"/>
<path d="M873.382 336.556C873.335 330.846 873.335 325.966 873.335 320.194C868.116 320.194 863.284 321.148 859.146 319.867C856.27 318.976 854.348 315.012 852 312.421C854.395 310.393 856.519 307.274 859.25 306.594C863.267 305.595 867.718 306.336 873.121 306.336C873.121 302.768 873.132 299.629 873.119 296.49C873.098 291.62 871.825 285.452 878.958 285.023C886.368 284.577 885.54 290.778 885.597 295.709C885.635 298.993 885.604 302.278 885.604 306.38C890.382 306.38 894.849 305.572 898.796 306.656C901.565 307.416 903.624 310.755 906 312.942C903.764 315.333 901.911 319 899.201 319.813C895.264 320.994 890.708 320.116 885.154 320.116C885.154 324.612 885.562 328.822 885.005 332.901C884.655 335.47 883.259 339.51 881.615 339.905C879.226 340.478 876.19 338.357 873.382 336.556Z" fill="white"/>
<path d="M1393.55 528C1394.91 530.315 1396.77 533.615 1396.82 536.941C1397.12 554.284 1396.96 571.633 1396.95 590C1395.6 588.294 1393.14 585.581 1393.1 582.839C1392.84 564.895 1393.11 546.945 1393.55 528Z" fill="white"/>
<path d="M584.432 482C585.465 505.53 585.883 529.696 585.997 553.862C586.049 564.926 585.501 575.991 585.032 587.996C584.198 588.064 582.996 587.19 583 586.318C583.163 551.757 583.435 517.196 584.432 482Z" fill="white"/>
<path d="M412.782 578C411.058 576.105 409.906 574.093 408.699 572.116C407.156 569.587 405.568 567.087 404 564.574C405.113 563.716 406.226 562.858 407.339 562C410.812 565.338 414.286 568.676 418 572.726C416.604 574.926 414.966 576.412 412.782 578Z" fill="white"/>
<path d="M1199 586C1197.43 585.61 1194.99 584.118 1195 582.642C1195.17 561.982 1195.69 541.325 1196.99 520C1198.33 541.191 1198.79 563.048 1199 586Z" fill="white"/>
<path d="M469.369 592.99C468.051 590.352 467.525 587.878 467 585.404C468.157 584.936 469.315 584.468 470.472 584C471.978 586.492 473.485 588.983 475 592.143C473.393 592.925 471.777 593.04 469.369 592.99Z" fill="white"/>
<path d="M504 353.024C500.603 353.716 496.409 354.186 492 353.928C495.591 353.067 499.397 352.935 504 353.024Z" fill="white"/>
<path d="M1476 481C1476.62 488.401 1476.94 496.788 1477 506C1476.39 498.545 1476.05 490.266 1476 481Z" fill="white"/>
<path d="M466 554.939C468.168 552.32 470.336 549.701 473.201 547.021C473.898 546.96 474 547.053 474 547.053C471.834 549.684 469.668 552.316 466.8 554.989C466.099 555.031 466 554.939 466 554.939Z" fill="white"/>
<path d="M1081 439.251C1081.72 439.049 1082.36 439.025 1083 439C1082.82 439.333 1082.64 439.667 1082.46 440C1081.94 439.809 1081.43 439.618 1081 439.251Z" fill="white"/>
<path d="M1141.04 590C1142.46 591.257 1143.29 593.406 1142.9 596C1141.27 594.593 1140.86 592.743 1141.04 590Z" fill="white"/>
<path d="M589 594.883C590.378 593.213 592.235 592.856 595 593.046C593.765 594.46 591.622 595.328 589 594.883Z" fill="white"/>
<path d="M514 354.866C512.941 355.209 512.098 354.872 511 354.111C511.902 353.854 513.059 354.019 514 354.866Z" fill="white"/>
<path d="M1456 456C1455.36 455.559 1454.95 454.45 1455.01 453C1455.73 453.55 1455.97 454.441 1456 456Z" fill="white"/>
<path d="M602 594.889C602.386 593.235 602.976 592.851 604 593.047C603.691 594.472 602.948 595.315 602 594.889Z" fill="white"/>
<path d="M466 555.063C465.915 555.76 465.74 556.295 465.273 556.895C465.049 557.07 465 556.973 465 556.973C465.108 556.329 465.287 555.804 465.734 555.157C465.932 554.917 465.979 555.01 466 555.063Z" fill="white"/>
<path d="M463 592.292C463.662 591.735 464.235 592.003 465 592.859C464.523 593.139 463.762 593.028 463 592.292Z" fill="white"/>
<path d="M465 557.064C464.809 557.746 464.427 558.253 463.464 558.831C463.029 559.022 463 558.999 463 558.999C463.211 558.367 463.564 557.84 464.455 557.165C464.852 556.914 464.955 557.01 465 557.064Z" fill="white"/>
<path d="M463 559.009C462.727 559.682 462.176 560.212 460.699 560.816C460.032 561.017 460 561 460 561C460.33 560.362 460.888 559.84 462.308 559.202C462.939 558.97 462.982 558.993 463 559.009Z" fill="white"/>
<path d="M335 469.005C335.259 468.953 335.583 469.29 336 469.996C335.75 470.041 335.408 469.718 335 469.005Z" fill="white"/>
<path d="M341.907 548.158C342.211 548.473 341.673 549 341.673 549C341.673 549 341.107 548.646 341 548.331C341.13 547.958 341.366 547.9 341.907 548.158Z" fill="white"/>
<path d="M383.998 542C384.041 542.309 383.356 542.619 382.001 543C381.977 542.715 382.624 542.358 383.998 542Z" fill="white"/>
<path d="M404 852.065C403.283 852.993 402.497 853.496 401.712 854C401.474 853.454 401.237 852.909 401 852.363C401.977 852.122 402.954 851.881 404 852.065Z" fill="#010E2C"/>
<path d="M1451 468C1451.45 468.458 1451.73 469.572 1452 470.686C1451.88 471.124 1451.76 471.562 1451.64 472C1451.37 470.886 1451.09 469.771 1451 468Z" fill="white"/>
<path d="M1495 541.293C1497.23 540.302 1499.11 540.151 1501 540C1500.51 541.667 1500.01 543.333 1499.52 545C1497.9 544.044 1496.28 543.089 1495 541.293Z" fill="white"/>
<path d="M1740.5 495.873C1740.35 494.828 1740.2 493.782 1741.28 492C1747.58 494.399 1753.64 496.709 1757.53 500.827C1768.91 512.87 1775.82 513.6 1788.49 503.521C1791.18 501.383 1795.75 501.333 1799.76 501.113C1809.55 529.034 1828.43 542.813 1855.61 542.434C1874.52 542.169 1888.46 532.857 1900.8 521.385C1905.94 524.749 1910.75 528.517 1916.13 529.463C1930.13 531.926 1946.81 523.029 1957.7 538.543C1957.96 538.917 1959.21 538.679 1960 538.726C1936.35 581.913 1868.7 618.407 1801.92 571.327C1801.58 575.112 1801.04 578.235 1801.05 581.356C1801.09 603.961 1801.48 626.568 1801.29 649.171C1801.06 676.771 1769.76 706.957 1740 708C1740 643.197 1740 578.419 1741.23 512.554C1744.67 509.039 1749.22 505.704 1748.63 504.365C1747.17 501.048 1743.36 498.644 1740.5 495.873Z" fill="white"/>
<path d="M1798.72 499.753C1795 500.761 1790.4 500.812 1787.7 502.942C1774.95 512.98 1768 512.253 1756.54 500.258C1752.63 496.156 1746.53 493.856 1740.43 490.7C1736.48 441.341 1760.05 405.304 1807.07 387.233C1854.49 369.008 1910.63 381.759 1946.96 418.37C1975.62 447.245 1981.24 500.51 1960.74 537.319C1959.45 537.958 1958.19 538.196 1957.93 537.822C1946.98 522.371 1930.19 531.233 1916.11 528.779C1910.7 527.837 1905.86 524.085 1900.82 520.061C1902.27 516.701 1903.66 514.893 1906.06 513.139C1914.05 513.744 1919.55 512.564 1919.28 503.124C1916.04 502.711 1912.8 502.298 1909.55 500.981C1910.01 497.706 1910.47 495.336 1911.46 492.33C1911.53 487.635 1911.09 483.577 1910.34 478.728C1900.05 448.782 1878.7 432.853 1851.53 434.284C1824.34 435.716 1803.65 454.153 1797.88 481.991C1797.11 482.796 1797.2 483.362 1797.94 484.744C1797.91 487.981 1797.79 490.336 1797.18 492.342C1795.42 492.212 1794.15 492.43 1792.88 492.647C1794.57 493.534 1796.26 494.421 1798.19 496.035C1798.53 497.76 1798.63 498.756 1798.72 499.753Z" fill="white"/>
<path d="M1740.02 497C1742.93 498.721 1746.56 501.015 1747.95 504.181C1748.51 505.458 1744.18 508.642 1741.13 511C1740.06 506.669 1739.95 502.296 1740.02 497Z" fill="white"/>
<path d="M1898.29 523.627C1920.63 492.44 1902.74 460.881 1891 449H1909.21L1942 515.83C1918.12 531.424 1875.94 554.815 1898.29 523.627Z" fill="white"/>
<path d="M682.5 132.25C626.811 132.25 581.5 177.561 581.5 233.187C581.134 314.555 678.662 382.023 682.5 384.75C682.5 384.75 783.866 314.555 783.5 233.25C783.5 177.561 738.189 132.25 682.5 132.25ZM682.5 283.75C654.599 283.75 632 261.151 632 233.25C632 205.349 654.599 182.75 682.5 182.75C710.401 182.75 733 205.349 733 233.25C733 261.151 710.401 283.75 682.5 283.75Z" fill="url(#paint0_linear_9_72)"/>
</g>
<defs>
<linearGradient id="paint0_linear_9_72" x1="682.5" y1="132.25" x2="682.5" y2="384.75" gradientUnits="userSpaceOnUse">
<stop stop-color="#8DBFF7"/>
<stop offset="1" stop-color="white"/>
</linearGradient>
<clipPath id="clip0_9_72">
<rect width="2141" height="852" fill="white"/>
</clipPath>
</defs>
</svg>
