<svg version="1.1" xmlns="http://www.w3.org/2000/svg" style="display: block;" viewBox="0 0 2048 2048" width="1024" height="1024" preserveAspectRatio="none">
<path transform="translate(0,0)" fill="rgb(58,174,254)" d="M 1474.24 1056.39 C 1529.31 1054.75 1573.58 1077.66 1606.39 1121.97 C 1633.41 1158.02 1644.67 1203.49 1637.6 1247.99 C 1623.58 1337.07 1529.94 1407.69 1440.4 1377.98 C 1418.18 1370.6 1398.51 1358.81 1384.78 1339.43 C 1386.03 1374.74 1385.07 1415.36 1385.1 1450.99 L 1384.92 1523.77 C 1364.49 1522.42 1317.77 1522.96 1296.77 1523.73 L 1296.76 1223.74 C 1296.76 1174.34 1298.32 1114.75 1296.35 1066.03 C 1325.8 1065.97 1355.42 1066.69 1384.93 1065.98 C 1384.04 1081.04 1386.33 1093.72 1383.88 1110.11 C 1385.88 1107.08 1388.01 1104.16 1390.29 1101.33 C 1413.43 1072.63 1438.03 1060.26 1474.24 1056.39 z M 1481.79 1305.11 C 1533.12 1294.77 1557.14 1248.8 1546.56 1199.22 C 1541.92 1176.65 1528.35 1156.91 1508.94 1144.5 C 1493.2 1134.39 1472.06 1129.18 1453.54 1132.27 C 1401.07 1141.72 1376.25 1189.58 1385.42 1239.85 C 1389.4 1261.54 1401.93 1280.73 1420.18 1293.1 C 1438.05 1305.22 1460.74 1308.51 1481.79 1305.11 z"/>
<path transform="translate(0,0)" fill="rgb(58,174,254)" d="M 554.075 1056.38 C 585.084 1052.89 617.377 1062.97 639.552 1085.03 C 648.711 1094.15 654.179 1102.73 660.995 1113.49 C 665.915 1104.81 671.885 1096.77 678.771 1089.55 C 698.894 1068.32 726.796 1056.2 756.048 1055.98 C 811.521 1055.45 857.772 1086.29 871.8 1140.99 C 882.077 1181.06 879.384 1224.25 879.401 1265.44 L 879.435 1379.59 C 854.755 1378.47 814.755 1378.85 789.859 1379.55 C 789.389 1336.85 789.279 1294.15 789.531 1251.46 C 789.549 1231.83 789.681 1212.13 789.049 1192.5 C 788.171 1165.25 776.624 1140.67 747.586 1134.51 C 706.421 1125.78 680.296 1149.84 678.515 1190.21 C 677.805 1206.31 678.119 1222.34 678.143 1238.51 L 678.253 1327.75 C 678.257 1344.84 678.498 1362.61 677.862 1379.62 C 663.999 1378.79 647.034 1379.24 632.858 1379.22 C 619.973 1379.2 603.145 1378.81 590.758 1379.81 L 590.816 1257.21 C 590.825 1230.69 591.541 1204.78 588.214 1178.33 C 584.849 1151.57 563.13 1133.02 536.495 1132.39 C 469.212 1130.8 480.006 1207.99 480.022 1253.84 L 480.119 1379.76 C 458.719 1377.88 413.253 1379.3 390.662 1379.37 L 390.538 1172.44 L 390.583 1103.3 C 390.581 1091.61 389.9 1077.3 390.71 1065.94 C 403.451 1066.98 420.984 1066.08 434.202 1066.07 C 449.309 1066.06 466.093 1066.73 480.979 1066.19 C 480.618 1078.87 480.716 1088.97 479.804 1101.91 C 497.756 1074 521.432 1060.37 554.075 1056.38 z"/>
<path transform="translate(0,0)" fill="rgb(58,174,254)" d="M 1053.68 1056.37 C 1097.5 1052.9 1134.74 1068.84 1163.15 1101.94 C 1162.74 1090.57 1162.93 1077.89 1162.89 1066.42 L 1249.75 1066.1 C 1248.92 1097.03 1249.53 1130.7 1249.51 1161.78 L 1249.56 1379.71 C 1240.04 1378.8 1221.18 1379.2 1210.73 1379.24 C 1196.8 1379.3 1176.32 1378.63 1162.99 1380.06 C 1162.84 1366.68 1162.87 1353.31 1163.07 1339.94 C 1160.1 1343.74 1156.99 1347.16 1153.79 1350.76 C 1101.72 1397.75 1029.52 1393.87 974.884 1353.26 C 857.788 1266.24 909.451 1074.1 1053.68 1056.37 z M 1096.01 1304.76 C 1116.62 1301.74 1135.18 1290.65 1147.62 1273.93 C 1162.21 1254.26 1166.57 1229.42 1162.91 1205.49 C 1159.58 1182.44 1147 1161.73 1128.08 1148.15 C 1109.57 1134.8 1091.26 1130.28 1068.61 1132.32 C 1015.49 1140.99 992.057 1187.9 999.926 1238.34 C 1007.16 1284.71 1050.24 1313.78 1096.01 1304.76 z"/>
<path transform="translate(0,0)" fill="rgb(58,174,254)" d="M 1574.4 632.973 C 1667.63 621.493 1752.49 687.832 1763.86 781.079 C 1775.22 874.325 1708.78 959.103 1615.52 970.352 C 1522.42 981.581 1437.82 915.278 1426.48 822.195 C 1415.13 729.112 1481.33 644.432 1574.4 632.973 z M 1606.91 888.869 C 1659.81 878.016 1683.91 831.246 1672.93 780.157 C 1668.49 758.968 1655.7 740.462 1637.44 728.817 C 1622.13 719.155 1600.23 713.484 1582.3 716.326 C 1473.07 734.153 1496.39 907.643 1606.91 888.869 z"/>
<path transform="translate(0,0)" fill="rgb(58,174,254)" d="M 618.452 516.495 C 626.579 517.222 641.63 516.753 650.453 516.73 L 710.118 516.462 L 709.961 681.619 C 713.372 675.641 717.479 670.087 722.196 665.075 C 782.343 601.829 903.728 637.453 920.743 723.332 C 928.974 764.879 927.512 797.118 927.497 839.016 C 927.332 879.779 927.419 920.542 927.759 961.304 C 898.818 961.131 866.964 962.382 838.193 960.742 C 839.236 949.9 838.64 929.66 838.593 917.88 L 838.531 844.75 C 838.327 818.926 840.371 783.22 834.244 759.087 C 820.159 703.613 723.549 700.198 713.133 760.208 C 708.626 786.175 710.119 814.485 710.139 840.57 L 710.299 961.697 C 704.71 960.953 682.38 961.221 675.669 961.302 C 657.337 961.523 635.862 960.428 617.873 961.844 L 617.73 644.383 L 617.546 564.348 C 617.499 552.872 616.96 527.229 618.452 516.495 z"/>
<path transform="translate(0,0)" fill="rgb(58,174,254)" d="M 438.87 633.501 C 445.878 633.891 452.766 633.953 459.788 634.543 C 513.8 639.083 556.745 668.948 580.941 717.451 C 574.329 721.669 562.96 727.149 555.775 730.884 C 540.831 738.769 525.784 746.457 510.637 753.945 C 504.15 745.516 499.349 739.465 490.878 732.882 C 473.353 719.373 451.126 713.489 429.213 716.558 C 408.441 719.281 389.642 730.256 377.059 747.005 C 345.798 789.123 357.049 864.241 409.513 884.317 C 449.505 899.62 487.142 884.978 511.25 850.866 C 523.474 856.765 535.64 862.786 547.744 868.927 C 558.353 874.119 570.483 879.704 580.563 885.631 C 576.133 895.16 567.554 906.543 560.485 914.21 C 530.173 947.739 487.531 967.501 442.355 968.958 C 398.427 970.611 353.976 952.818 322.075 922.787 C 290.055 892.256 271.614 850.16 270.88 805.924 C 269.468 746.846 299.347 691.691 348.311 659.142 C 376.583 640.347 405.584 634.308 438.87 633.501 z"/>
<path transform="translate(0,0)" fill="rgb(58,174,254)" d="M 1103.01 644.527 C 1126.43 645.701 1162.95 645.846 1186.23 644.013 C 1203.06 692.603 1220.6 740.943 1238.85 789.017 C 1247.07 811.133 1258.75 839.756 1265.15 861.558 C 1270.15 841.643 1282.47 809.406 1289.62 789.012 C 1306.77 741.052 1323.63 692.989 1340.2 644.827 C 1367.49 643.602 1402.75 644.615 1430.64 644.531 L 1400.04 724.954 C 1371.51 803.148 1338.43 883.088 1311.37 961.398 C 1279.67 961.184 1247.97 961.15 1216.26 961.295 C 1210.34 942.118 1198.93 918.254 1191.63 898.969 C 1170.13 842.993 1148.22 787.175 1125.91 731.519 C 1114.59 703.205 1101.74 673.155 1091.4 644.723 L 1103.01 644.527 z"/>
<path transform="translate(0,0)" fill="rgb(58,174,254)" d="M 972.067 644.02 C 979.482 645.175 996.537 644.735 1004.7 644.719 L 1063.91 644.448 C 1066.56 672.452 1064.96 724.791 1064.95 754.887 L 1065.02 961.918 C 1059.29 961.164 1053.07 961.287 1047.26 961.215 C 1028.55 962.793 993.014 961.032 971.816 961.5 C 970.931 918.281 971.829 874.267 971.804 831.014 C 971.524 768.683 971.612 706.35 972.067 644.02 z"/>
<path transform="translate(0,0)" fill="rgb(58,174,254)" d="M 1012.16 500.1 C 1042.59 497.809 1069.19 520.447 1071.8 550.855 C 1074.41 581.263 1052.06 608.103 1021.68 611.033 C 1001.74 612.955 982.308 604.02 970.79 587.634 C 959.271 571.249 957.441 549.938 965.999 531.829 C 974.557 513.72 992.183 501.604 1012.16 500.1 z"/>
</svg>